<?xml version="1.0" encoding="UTF-8" standalone="no"?>
<svg 
    role="img" 
    xmlns="http://www.w3.org/2000/svg" 
    width="1000mm"
    height="1000mm"
    viewBox="0 0 1000 1000">
    
    <path 
        id="path" 
        style="opacity:1;vector-effect:none;fill:#13A447;fill-opacity:1;"
        d="M 500 0C 224 0 0 224 0 500C 0 776 224 1000 500 1000C 776 1000 1000 776 1000 500C 1000 224 776 0 500 0C 500 0 500 0 500 0 M 846 300C 868 339 868 661 846 700C 823 739 545 900 500 900C 455 900 177 739 154 700C 132 661 132 339 154 300C 177 261 455 100 500 100C 545 100 823 261 846 300C 846 300 846 300 846 300M 594 747C 600 747 657 691 652 687C 651 685 639 684 625 684C 625 633 620 654 626 355C 626 350 624 347 619 347C 601 347 584 347 567 347C 562 347 560 350 560 355C 563 431 562 479 562 486C 562 486 437 486 437 486C 438 429 437 373 441 316C 455 316 466 315 467 313C 472 309 413 253 407 253C 401 253 343 309 347 313C 348 315 359 316 374 316C 379 452 378 501 374 653C 374 661 377 663 383 663C 399 663 415 663 431 663C 437 663 440 661 440 654C 437 596 438 551 438 540C 438 540 563 540 563 540C 563 591 562 630 562 684C 544 684 536 685 534 687C 530 691 587 747 594 747C 594 747 594 747 594 747"
        transform="">
    </path>    
</svg>